<svg width="48" height="54" viewBox="0 0 48 54" fill="none" xmlns="http://www.w3.org/2000/svg">
<path fill-rule="evenodd" clip-rule="evenodd" d="M24 0L0 16.0374V20.0748L24 3.92523L48 20.0748V16.0374L24 0Z" fill="#B9BEC3"/>
<path fill-rule="evenodd" clip-rule="evenodd" d="M24 8.18701L41.4953 20.6356V24.673L24 12.1122V8.18701ZM23.9999 8.18711L6.84106 20.8363V24.8737L23.9999 12.1123V8.18711Z" fill="#B9BEC3"/>
<path fill-rule="evenodd" clip-rule="evenodd" d="M24 16.9346L13.1216 25.0093V29.0467L24 20.8599L34.6646 29.0467V25.0094L24.0001 16.9347V16.9346L24 16.9346L24 16.9346V16.9346Z" fill="#B9BEC3"/>
<path fill-rule="evenodd" clip-rule="evenodd" d="M24 36.2244L0 20.187V16.1496L24 32.2991V32.2991L48 16.1495V20.1869L24 36.2243V36.2244Z" fill="#EA6526"/>
<path fill-rule="evenodd" clip-rule="evenodd" d="M24 45.0842L0 29.0468V25.0095L24 41.159V41.1589L43.972 27.7009V31.7383L24 45.0841V45.0842Z" fill="#EA6526"/>
<path fill-rule="evenodd" clip-rule="evenodd" d="M24 53.8318L0 37.7944V33.757L24 49.9066V53.8318ZM24 53.8318L36.4486 45.5555V41.5182L24 49.9065V53.8318Z" fill="#EA6526"/>
</svg>
