<svg width="16" height="17" viewBox="0 0 16 17" fill="none" xmlns="http://www.w3.org/2000/svg">
<rect width="16" height="16" rx="8" fill="white"/>
<path fill-rule="evenodd" clip-rule="evenodd" d="M4.27683 0.0234909C4.29701 0.0410871 4.43325 0.139253 4.57957 0.2416C4.72589 0.343947 4.95723 0.539291 5.09362 0.675728C5.35221 0.934313 5.73085 1.46885 5.83696 1.72508C5.87086 1.80694 5.92942 1.94231 5.96709 2.02592C6.33049 2.83295 6.387 4.2278 6.09326 5.14231C5.90016 5.74366 5.40409 6.38317 4.86218 6.72939C4.57494 6.91295 4.08752 7.15212 3.83848 7.2317C3.47918 7.34659 3.44232 7.45144 3.74525 7.4969C4.40255 7.59544 5.10001 7.93942 5.63622 8.4295C6.01494 8.77564 6.47837 9.45779 6.64931 9.92076C7.17647 11.3485 7.00462 13.0848 6.22134 14.2445C5.73872 14.9589 4.81133 15.599 3.85748 15.8759C3.69026 15.9244 3.52779 15.9748 3.49644 15.9879C3.38835 16.033 15.2751 16.0343 15.4444 15.9892C15.6415 15.9368 15.9392 15.6411 15.975 15.4622C15.9887 15.3934 16 12.0294 16 7.9867C16 -0.0752081 16.0163 0.495092 15.7795 0.245819C15.5388 -0.00755904 16.032 0.0127356 9.84452 0.00156217C6.76207 -0.00402453 4.25661 0.00585669 4.27683 0.0234909ZM0 3.91214V6.72943L0.826603 6.70773C1.68475 6.68519 1.87633 6.65711 2.3821 6.47959C3.08804 6.23183 3.72701 5.68373 4.04504 5.05315C4.28412 4.57904 4.3818 3.72914 4.26189 3.16607C4.17672 2.76618 3.90191 2.26558 3.59601 1.95299C2.97646 1.31995 2.18995 1.09629 0.579572 1.09519L0 1.09481V3.91214ZM15.3779 2.00388C15.4788 2.04971 15.5807 2.14115 15.663 2.25958L15.791 2.44398L15.8035 3.11286C15.8184 3.91358 15.7922 4.04094 15.5659 4.26729C15.3425 4.49065 15.1856 4.51884 14.1963 4.51364L13.3967 4.50942L13.3777 9.86148C13.3566 15.794 13.3784 15.3254 13.114 15.5478C12.9472 15.6881 12.7613 15.7364 12.449 15.7207C12.1137 15.7038 11.9041 15.5809 11.7828 15.3304C11.7061 15.172 11.7055 15.1236 11.7055 9.84289V4.51523H11.0473C10.2685 4.51523 10.0739 4.47328 9.8674 4.26068C9.65978 4.0469 9.6152 3.86577 9.6152 3.23584C9.6152 2.92523 9.63527 2.61705 9.66202 2.5171C9.71656 2.31309 9.92122 2.05716 10.0878 1.98461C10.181 1.94402 10.7061 1.93376 12.7126 1.93323C15.0855 1.93262 15.2294 1.93642 15.3779 2.00388ZM9.60327 5.96603L9.69121 6.04869V10.0098V13.9709L9.51886 14.4022C9.42408 14.6394 9.3158 14.9019 9.27825 14.9855C9.2407 15.0692 9.16006 15.2615 9.09906 15.413C9.03802 15.5644 8.97718 15.6884 8.96384 15.6885C8.95046 15.6886 8.78347 15.2967 8.59276 14.8176L8.246 13.9466L8.256 9.98765L8.26603 6.0287L8.35576 5.95607C8.43458 5.89222 8.51036 5.88341 8.98037 5.88341C9.47728 5.88341 9.52156 5.8893 9.60327 5.96603ZM0 11.4321V14.3585H1.00739C2.30696 14.3585 2.81429 14.2907 3.42358 14.0355C4.35937 13.6436 4.91443 12.8573 4.96756 11.8484C5.03848 10.5009 4.27576 9.35233 2.94058 8.79605C2.41 8.57498 1.90069 8.50828 0.731591 8.50672L0 8.50573V11.4321Z" fill="#EA6526"/>
</svg>
